<?xml version="1.0" encoding="UTF-8" standalone="no"?>
<svg
   xmlns:dc="http://purl.org/dc/elements/1.1/"
   xmlns:cc="http://creativecommons.org/ns#"
   xmlns:rdf="http://www.w3.org/1999/02/22-rdf-syntax-ns#"
   xmlns:svg="http://www.w3.org/2000/svg"
   xmlns="http://www.w3.org/2000/svg"
   viewBox="0 0 220.0125 102.3375"
   height="102.3375"
   width="220.0125"
   xml:space="preserve"
   version="1.1"
   id="svg2"><metadata
     id="metadata8"><rdf:RDF><cc:Work
         rdf:about=""><dc:format>image/svg+xml</dc:format><dc:type
           rdf:resource="http://purl.org/dc/dcmitype/StillImage" /></cc:Work></rdf:RDF></metadata><defs
     id="defs6" /><g
     transform="matrix(1.25,0,0,-1.25,0,102.3375)"
     id="g10"><g
       transform="scale(0.1,0.1)"
       id="g12"><path
         id="path14"
         style="fill:#211d1d;fill-opacity:1;fill-rule:nonzero;stroke:none"
         d="m 112.488,176.465 c 5.11,-5.098 13.813,-7.199 17.707,-7.199 l 0,-6.297 -33.2887,0 -49.1993,48.894 -2.707,-2.097 0,-5.403 c 0,-30 3.8984,-35.097 23.7031,-35.097 l 0,-6.297 -68.7031,0 0,6.297 c 20.1055,0 23.7031,5.097 23.7031,35.097 l 0,94.797 c 0,30 -3.5976,35.102 -23.7031,35.102 l 0,6.301 45,7.5 0,-127.497 25.207,20.399 c 9.8907,8.098 5.6914,15.898 -9.0039,15.898 l 0,5.996 59.9959,0 0,-5.996 c 0,0 -19.804,-1.504 -31.4998,-10.8 l -25.5,-20.997 48.2888,-48.601" /><path
         id="path16"
         style="fill:#211d1d;fill-opacity:1;fill-rule:nonzero;stroke:none"
         d="m 216.594,217.566 c -28.496,-6.601 -41.399,-16.503 -41.399,-29.695 0,-9.601 6.602,-15.305 14.102,-15.305 6.301,0 13.508,2.102 27.297,14.407 l 0,30.593 z m 20.996,-57.898 c -11.699,0 -18.891,6.602 -20.395,17.402 -14.707,-13.203 -25.507,-18 -37.5,-18 -14.695,0 -26.992,9.297 -26.992,25.196 0,25.5 29.692,36.601 63.891,42.597 0,22.5 -3,31.504 -20.102,31.504 -6.89,0 -17.09,-4.804 -17.09,-14.402 0,-5.996 -4.507,-10.5 -10.203,-10.5 -6.008,0 -10.5,4.504 -10.5,10.5 0,14.402 18.899,24.004 38.098,24.004 29.094,0 41.101,-12.305 41.101,-40.801 l 0,-45.305 c 0,-7.5 2.395,-11.695 6.899,-11.695 2.996,0 6.297,2.398 8.394,4.5 l 4.204,-5.703 c -5.707,-5.996 -13.207,-9.297 -19.805,-9.297" /><path
         id="path18"
         style="fill:#211d1d;fill-opacity:1;fill-rule:nonzero;stroke:none"
         d="m 285.598,252.363 0,7.196 c 18.007,3.906 24.597,16.808 26.699,36.3 l 10.191,0 0,-33 26.106,0 0,-10.496 -26.106,0 0,-60.597 c 0,-14.403 3.907,-21.895 13.508,-21.895 5.399,0 12.598,3.899 19.5,10.5 l 5.102,-5.109 c -8.403,-10.196 -21.606,-17.391 -31.504,-17.391 -16.496,0 -27.895,10.496 -27.895,33.895 l 0,60.597 -15.601,0" /><path
         id="path20"
         style="fill:#211d1d;fill-opacity:1;fill-rule:nonzero;stroke:none"
         d="m 426.301,297.363 c -7.207,0 -13.203,5.996 -13.203,13.5 0,7.2 5.996,13.2 13.203,13.2 7.195,0 13.203,-6 13.203,-13.2 0,-7.504 -6.008,-13.5 -13.203,-13.5 z m -34.199,-134.394 0,6.297 c 19.8,0 23.691,5.097 23.691,35.097 l 0,15 c 0,30 -3.891,34.797 -23.691,34.797 l 0,6.309 45,7.5 0,-63.606 c 0,-30 3.589,-35.097 23.691,-35.097 l 0,-6.297 -68.691,0" /><path
         id="path22"
         style="fill:#211d1d;fill-opacity:1;fill-rule:nonzero;stroke:none"
         d="m 571.492,231.668 c 3.305,9.602 -1.797,24.297 -21.597,24.297 -12.891,0 -23.997,-9.598 -28.196,-24.297 l 49.793,0 z m -12.597,-61.199 c 9.906,0 24.296,5.703 33,13.797 l 5.402,-6.598 c -10.5,-11.098 -28.801,-19.797 -45.902,-19.797 -32.997,0 -55.497,24.891 -55.497,55.195 0,31.797 27.598,54.903 55.497,54.903 26.703,0 48,-21.602 40.8,-47.403 l -72.3,0 c -3.594,-28.203 8.101,-50.097 39,-50.097" /><path
         id="path24"
         style="fill:#211d1d;fill-opacity:1;fill-rule:nonzero;stroke:none"
         d="m 775.496,231.668 c 3.305,9.602 -1.797,24.297 -21.601,24.297 -12.899,0 -24,-9.598 -28.204,-24.297 l 49.805,0 z m -12.598,-61.199 c 9.895,0 24.297,5.703 32.993,13.797 l 5.41,-6.598 c -10.508,-11.098 -28.813,-19.797 -45.903,-19.797 -33.003,0 -55.503,24.891 -55.503,55.195 0,31.797 27.593,54.903 55.503,54.903 26.704,0 47.993,-21.602 40.793,-47.403 l -72.296,0 c -3.59,-28.203 8.109,-50.097 39.003,-50.097" /><path
         id="path26"
         style="fill:#211d1d;fill-opacity:1;fill-rule:nonzero;stroke:none"
         d="m 956.98,204.363 c 0,-31.797 2.114,-35.097 18.911,-35.097 l 0,-6.297 -58.801,0 0,6.297 c 16.496,0 18.894,3.3 18.894,35.097 l 0,17.403 c 0,19.504 -5.996,32.101 -21.597,32.101 -10.492,0 -30.903,-11.406 -30.903,-30 l 0,-19.504 c 0,-31.199 2.114,-35.097 18.606,-35.097 l 0,-6.297 -63.594,0 0,6.297 c 19.797,0 23.699,5.097 23.699,35.097 l 0,15 c 0,30 -3.902,34.797 -23.699,34.797 l 0,6.309 39.895,7.5 c 1.504,-3.008 4.199,-15.301 5.093,-21.602 8.11,10.196 21.606,21.602 39.004,21.602 18.305,0 27.602,-8.703 31.797,-22.5 6.906,9.89 24.301,22.5 42.004,22.5 26.701,0 34.501,-19.199 34.501,-44.707 l 0,-18.899 c 0,-30 3.9,-35.097 23.69,-35.097 l 0,-6.297 -63.589,0 0,6.297 c 16.499,0 18.589,3.3 18.589,35.097 l 0,17.403 c 0,19.504 -5.69,32.101 -21.289,32.101 -10.203,0 -31.211,-11.406 -31.211,-30 l 0,-19.504" /><path
         id="path28"
         style="fill:#211d1d;fill-opacity:1;fill-rule:nonzero;stroke:none"
         d="m 1205.38,204.363 c 0,-31.797 2.11,-35.097 18.91,-35.097 l 0,-6.297 -58.8,0 0,6.297 c 16.49,0 18.89,3.3 18.89,35.097 l 0,17.403 c 0,19.504 -5.99,32.101 -21.6,32.101 -10.49,0 -30.9,-11.406 -30.9,-30 l 0,-19.504 c 0,-31.199 2.11,-35.097 18.61,-35.097 l 0,-6.297 -63.6,0 0,6.297 c 19.8,0 23.71,5.097 23.71,35.097 l 0,15 c 0,30 -3.91,34.797 -23.71,34.797 l 0,6.309 39.9,7.5 c 1.5,-3.008 4.2,-15.301 5.09,-21.602 8.11,10.196 21.61,21.602 39.01,21.602 18.3,0 27.6,-8.703 31.8,-22.5 6.9,9.89 24.29,22.5 42,22.5 26.7,0 34.5,-19.199 34.5,-44.707 l 0,-18.899 c 0,-30 3.9,-35.097 23.69,-35.097 l 0,-6.297 -63.59,0 0,6.297 c 16.5,0 18.59,3.3 18.59,35.097 l 0,17.403 c 0,19.504 -5.69,32.101 -21.29,32.101 -10.2,0 -31.21,-11.406 -31.21,-30 l 0,-19.504" /><path
         id="path30"
         style="fill:#211d1d;fill-opacity:1;fill-rule:nonzero;stroke:none"
         d="m 1398.89,256.563 c -24.6,0 -36.3,-19.493 -36.3,-43.497 0,-23.996 11.7,-43.496 36.3,-43.496 24.9,0 36.3,19.5 36.3,43.496 0,24.004 -11.4,43.497 -36.3,43.497 z m 0,-98.692 c -33.29,0 -60.6,24.891 -60.6,55.195 0,30.301 27.31,54.903 60.6,54.903 33.3,0 60.59,-24.602 60.59,-54.903 0,-30.304 -27.29,-55.195 -60.59,-55.195" /><path
         id="path32"
         style="fill:#211d1d;fill-opacity:1;fill-rule:nonzero;stroke:none"
         d="m 1589.99,267.969 c 26.99,0 38.99,-19.199 38.99,-44.707 l 0,-18.899 c 0,-30 3.61,-35.097 23.71,-35.097 l 0,-6.297 -68.71,0 0,6.297 c 19.51,0 23.71,5.097 23.71,35.097 l 0,17.403 c 0,19.504 -6.9,32.101 -24.91,32.101 -16.5,0 -34.49,-13.508 -34.49,-30 l 0,-19.504 c 0,-30.898 2.4,-35.097 21,-35.097 l 0,-6.297 -66,0 0,6.297 c 19.81,0 23.69,5.097 23.69,35.097 l 0,15 c 0,30 -3.88,34.797 -23.69,34.797 l 0,6.309 39.9,7.5 c 1.5,-3.008 4.2,-15.301 5.1,-21.602 8.1,10.196 21.9,21.602 41.7,21.602" /><path
         id="path34"
         style="fill:#211d1d;fill-opacity:1;fill-rule:nonzero;stroke:none"
         d="m 1724.38,157.871 c -20.7,0 -32.09,21.297 -32.09,0 l -6,0 0,43.797 6,0 c 0,-13.504 11.39,-33.602 32.99,-33.602 9.61,0 16.8,6.903 16.8,15.301 0,7.5 -6.29,12.903 -16.8,18.301 l -16.49,8.996 c -14.7,7.801 -20.11,20.399 -20.11,30 0,16.199 15,27.305 30.61,27.305 22.5,0 26.99,-15.606 26.99,0 l 6.31,0 0,-34.805 -6.31,0 c 0,12.598 -8.99,25.203 -24.3,25.203 -10.19,0 -15.29,-5.398 -15.29,-12.898 0,-7.207 5.1,-11.106 18.3,-18.301 l 14.39,-7.805 c 13.21,-7.5 20.71,-17.996 20.71,-28.797 0,-19.796 -16.2,-32.695 -35.71,-32.695" /><path
         id="path36"
         style="fill:#211d1d;fill-opacity:1;fill-rule:nonzero;stroke:none"
         d="m 569.855,62.0977 c -0.91,0 -7.21,0 -9.757,0 l 0,-42.5977 c 0,-9.75391 1.047,-11.40625 8.547,-11.40625 l 1.21,0 c 19.786,0 23.692,15.00005 23.692,27.00395 0,11.8437 -3.906,27 -23.692,27 z M 537.598,5.54688 c 10.047,0 11.843,2.54687 11.843,17.54692 l 0,24.0039 c 0,15 -1.796,17.3945 -11.843,17.3945 l 0,3.0078 31.797,0 c 25.5,0 36.601,-14.707 36.601,-32.4023 0,-17.8516 -11.101,-32.55082 -36.601,-32.55082 l -31.797,0 0,3" /><path
         id="path38"
         style="fill:#211d1d;fill-opacity:1;fill-rule:nonzero;stroke:none"
         d="m 727.355,17.6953 0.743,2.9961 3.007,0 -1.21,-18.14452 -56.094,0 0,3 c 10.047,0 11.851,2.54687 11.851,17.54692 l 0,24.0039 c 0,15 -1.804,17.3945 -11.851,17.3945 l 0,3.0078 52.5,0 1.187,-18.0078 -3.14,0 -0.743,3.0078 c -1.664,6.8945 -3.617,9.5977 -17.257,9.5977 l -10.047,0 0,-22.3516 0.894,0 c 15,0 16.203,1.7969 16.203,11.8555 l 2.997,0 0,-29.2578 -2.997,0 c 0,9.9023 -1.203,11.8554 -16.203,11.8554 l -0.894,0 0,-8.7031 c 0,-15 1.797,-17.40235 11.851,-17.40235 l 1.797,0 c 13.656,0 15.598,2.55075 17.406,9.60155" /><path
         id="path40"
         style="fill:#211d1d;fill-opacity:1;fill-rule:nonzero;stroke:none"
         d="M 822.297,0 C 814.504,0 808.191,3.75 805.496,5.54688 804.602,4.5 803.098,2.54688 802.645,0 l -2.696,0 0,25.8008 3,0 c 1.199,-12.7539 9.309,-19.95314 20.547,-19.95314 6.453,0 11.555,3.60547 11.555,10.05074 0,5.2539 -4.199,9.2969 -12.309,13.3477 L 812.551,34.5 c -7.207,3.75 -12.453,9.8945 -12.453,18.293 0,9.4531 7.949,17.0976 18.75,17.0976 6.297,0 11.101,-2.2461 14.25,-4.4922 0.75,0.8985 1.953,2.2461 2.246,4.6485 l 3.008,0 0,-25.3516 -3.008,0 c -0.903,9.0039 -4.946,19.6485 -15.742,19.6485 -5.852,0 -10.801,-3.1446 -10.801,-8.6993 0,-5.2461 3.902,-8.0976 13.047,-12.9023 L 831.902,37.5 C 840.449,33.1445 843.605,26.3945 843.605,20.5469 843.605,8.25 833.848,0 822.297,0" /><path
         id="path42"
         style="fill:#211d1d;fill-opacity:1;fill-rule:nonzero;stroke:none"
         d="m 909.746,2.54688 0,3 c 10.051,0 11.848,2.54687 11.848,17.54692 l 0,24.0039 c 0,15 -1.797,17.3945 -11.848,17.3945 l 0,3.0078 34.348,0 0,-3.0078 c -10.039,0 -11.848,-2.3945 -11.848,-17.3945 l 0,-24.0039 c 0,-15.00005 1.809,-17.54692 11.848,-17.54692 l 0,-3 -34.348,0" /><path
         id="path44"
         style="fill:#211d1d;fill-opacity:1;fill-rule:nonzero;stroke:none"
         d="m 1046.09,0 c -18.74,0 -33.89,15.75 -33.89,35.0977 0,19.0507 15.15,34.9492 33.89,34.9492 7.2,0 15.31,-4.1992 19.8,-9.9024 1.05,1.2032 2.11,4.9532 2.7,7.3555 l 2.86,0 0,-25.957 -3,0 c -2.85,13.9531 -10.8,22.8008 -22.36,22.8008 -16.79,0 -22.04,-16.6485 -22.04,-29.2461 0,-12.7539 5.25,-29.25004 22.04,-29.25004 7.5,0 19.06,4.64844 19.06,12.74614 0,6.0039 -5.55,9.1484 -12.9,9.1484 l 0,3.0078 33.15,0 0,-3.0078 c -10.06,0 -11.86,-2.5469 -11.86,-17.5469 0,0 0,-2.85155 0,-4.49217 C 1064.09,5.70313 1054.79,0 1046.09,0" /><path
         id="path46"
         style="fill:#211d1d;fill-opacity:1;fill-rule:nonzero;stroke:none"
         d="m 1146.75,64.4922 0,3.0078 18.45,0 39.9,-47.4023 0,27 c 0,15 -1.81,17.3945 -11.85,17.3945 l 0,3.0078 29.24,0 0,-3.0078 c -10.04,0 -11.85,-2.3945 -11.85,-17.3945 l 0,-46.953169 -2.84,0 -43.65,52.355469 0,-29.4062 c 0,-15.00005 1.8,-17.54692 11.85,-17.54692 l 0,-3 -29.25,0 0,3 c 10.05,0 11.85,2.54687 11.85,17.54692 l 0,24.0039 c 0,15 -1.8,17.3945 -11.85,17.3945" /><path
         id="path48"
         style="fill:#211d1d;fill-opacity:1;fill-rule:nonzero;stroke:none"
         d="m 979.176,539.75 -198.242,0 c -2.684,0 -4.875,-2.102 -4.875,-4.668 l 0,-4.883 c 0,-2.562 2.191,-4.664 4.875,-4.664 l 15.437,0 c 0.578,-4.949 1.781,-10.824 2.68,-14.222 1.211,-4.629 4.238,-19.657 4.238,-27.176 l 0,-83.797 c 0,-5.203 1.809,-6.934 1.809,-12.137 l 11.863,0 c 0,5.203 1.82,6.934 1.82,12.137 l 0,83.797 c 0,7.519 3.016,22.547 4.227,27.176 0.89,3.398 2.094,9.273 2.68,14.222 l 108.746,0 c 0.57,-4.949 1.781,-10.824 2.664,-14.222 1.211,-4.629 4.234,-19.657 4.234,-27.176 l 0,-83.797 c 0,-5.203 1.816,-6.934 1.816,-12.137 l 11.864,0 c 0,5.203 1.816,6.934 1.816,12.137 l 0,83.797 c 0,7.519 3.024,22.547 4.227,27.176 0.89,3.398 2.101,9.273 2.679,14.222 l 15.442,0 c 2.679,0 4.879,2.102 4.879,4.664 l 0,4.883 c 0,2.566 -2.2,4.668 -4.879,4.668" /><path
         id="path50"
         style="fill:#211d1d;fill-opacity:1;fill-rule:nonzero;stroke:none"
         d="m 969.316,647.125 0.004,0 35.08,91.063 c 1.12,3.015 1.57,6.05 1.57,9.105 -0.25,15.594 -11.236,33.727 -31.79,39.34 -3.446,0.883 -6.91,1.281 -10.246,1.281 -9.68,-0.031 -18.485,-3.234 -25.536,-7.91 -2.847,11.805 -10.71,21.289 -20.464,27.664 -10.993,7.207 -24.426,11.004 -37.786,11.016 l -0.191,0 c -13.348,-0.012 -26.797,-3.809 -37.785,-11.016 -9.754,-6.383 -17.629,-15.867 -20.473,-27.664 -7.051,4.676 -15.855,7.887 -25.539,7.91 -3.347,0 -6.816,-0.398 -10.269,-1.289 -20.532,-5.598 -31.528,-23.723 -31.774,-39.332 0,-3.031 0.446,-6.094 1.574,-9.074 l 35.082,-91.039 -0.011,0 c 3.097,-8.075 9.144,-14.407 16.562,-18.141 2.086,-6.031 3.571,-13.125 3.543,-19.789 0.016,-7.941 -1.996,-14.836 -6.113,-19.387 l 0.805,-0.656 -10.969,0 c -13.969,0 -25.305,-9.113 -25.305,-20.352 l 0,-9.046 c 0,-11.243 9.731,-12.192 23.703,-12.192 l 172.539,0 c 13.969,0 25.301,0.949 25.301,12.192 l 0,9.046 c 0,11.239 -11.332,20.352 -25.301,20.352 l -11.004,0 0.817,0.668 c -4.137,4.547 -6.129,11.434 -6.129,19.375 0,6.672 1.484,13.762 3.57,19.797 7.403,3.726 13.414,10.035 16.535,18.078 M 838.145,773.547 c 1.089,8.387 6.117,15.223 13.906,20.394 7.722,5.129 18.082,8.114 27.906,8.09 l 0.191,0 c 9.817,0.024 20.176,-2.961 27.907,-8.09 7.793,-5.171 12.812,-12.007 13.902,-20.339 0.125,-1.012 0.219,-2.563 0.219,-4.442 0.012,-7.062 -1.184,-18.25 -2.953,-30.695 l -10.969,-62.559 c -1.66,-8.336 -2.789,-13.656 -2.793,-13.679 l -0.098,-0.454 -0.047,-0.476 c -0.289,-4.094 -3.468,-8.981 -8.66,-12.762 -5.062,-3.789 -11.804,-6.07 -16.508,-6.004 l -0.191,0 c -4.715,-0.066 -11.441,2.215 -16.516,6.004 -5.187,3.781 -8.367,8.668 -8.656,12.762 l -0.043,0.473 -0.101,0.457 c 0,0.023 -1.137,5.386 -2.805,13.781 l -11.008,62.687 c -1.746,12.352 -2.926,23.446 -2.902,30.465 -0.012,1.895 0.086,3.43 0.219,4.387 m -31,-120.719 -0.02,0.059 -35.082,91.07 c -0.289,0.738 -0.508,1.891 -0.508,3.336 -0.254,7.93 7.539,20.766 18.84,23.238 1.926,0.492 3.848,0.711 5.785,0.723 5.84,0.019 11.844,-2.184 16.383,-5.438 4.574,-3.183 7.277,-7.457 7.574,-9.691 l 3.449,-19.664 c 3.157,-22.371 8.02,-47.859 11.114,-63.32 l 2.23,-12.692 c 0.16,-0.976 0.238,-1.926 0.238,-2.851 0.075,-7.196 -5.121,-13.844 -11.16,-15.243 -1.086,-0.257 -2.199,-0.402 -3.324,-0.402 -6.16,-0.09 -13.16,4.379 -15.519,10.875 m 17.285,-63.621 c 2.797,6.43 3.851,13.367 3.863,20.043 -0.008,5.594 -0.766,11.078 -1.949,16.273 1.371,0.165 2.738,0.399 4.086,0.735 7.75,2.047 13.933,6.687 18.136,12.664 1.36,-1.285 2.782,-2.5 4.274,-3.602 7.933,-5.75 17.461,-9.382 27.117,-9.441 l 0.191,0 c 9.657,0.059 19.184,3.691 27.114,9.441 1.484,1.094 2.906,2.313 4.273,3.586 4.192,-5.961 10.379,-10.601 18.11,-12.648 1.355,-0.344 2.722,-0.578 4.101,-0.742 -1.18,-5.196 -1.937,-10.672 -1.945,-16.266 0.008,-6.676 1.058,-13.605 3.859,-20.043 l -111.23,0 z m 112.988,52.746 c -1.125,0 -2.238,0.145 -3.316,0.41 -6.039,1.391 -11.231,8.043 -11.168,15.239 0,0.953 0.078,1.859 0.246,2.734 l 2.3,13.102 c 3.075,15.441 7.891,40.667 11.028,62.859 l 3.488,19.875 c 0.27,2.187 2.981,6.461 7.563,9.641 4.496,3.238 10.457,5.437 16.265,5.437 l 0.11,0 c 1.925,0 3.839,-0.227 5.761,-0.719 11.325,-2.472 19.102,-15.304 18.856,-23.238 0,-1.43 -0.223,-2.613 -0.535,-3.438 l -35.047,-90.972 -0.02,-0.051 c -2.347,-6.5 -9.359,-10.969 -15.531,-10.879" /></g></g></svg>